<svg width="1280" height="720" viewBox="0 0 1280 720" xmlns="http://www.w3.org/2000/svg" role="img" aria-label="Editorial illustration: a finished, signed-off absence report">
  <defs>
    <linearGradient id="bg2" x1="0" y1="0" x2="1" y2="1"><stop offset="0" stop-color="#0E141C"/><stop offset="1" stop-color="#0A0F15"/></linearGradient>
    <radialGradient id="glow2" cx="0.70" cy="0.40" r="0.6"><stop offset="0" stop-color="#00C8FF" stop-opacity="0.12"/><stop offset="0.5" stop-color="#00C8FF" stop-opacity="0.03"/><stop offset="1" stop-color="#00C8FF" stop-opacity="0"/></radialGradient>
    <linearGradient id="sheet" x1="0" y1="0" x2="0" y2="1"><stop offset="0" stop-color="#F5F0E6"/><stop offset="1" stop-color="#E7E0D2"/></linearGradient>
    <filter id="soft2" x="-20%" y="-20%" width="140%" height="140%"><feGaussianBlur stdDeviation="10"/></filter>
    <filter id="grain2"><feTurbulence type="fractalNoise" baseFrequency="0.9" numOctaves="2" stitchTiles="stitch"/><feColorMatrix type="matrix" values="0 0 0 0 1  0 0 0 0 1  0 0 0 0 1  0 0 0 0.018 0"/></filter>
  </defs>
  <rect width="1280" height="720" fill="url(#bg2)"/>
  <rect width="1280" height="720" fill="url(#glow2)"/>

  <!-- report sheet, right-weighted -->
  <g transform="translate(742,118)">
    <rect x="18" y="22" width="430" height="500" rx="14" fill="#000" opacity="0.30" filter="url(#soft2)"/>
    <rect width="430" height="500" rx="14" fill="url(#sheet)"/>
    <!-- header band -->
    <rect x="34" y="34" width="150" height="14" rx="7" fill="#C9913F"/>
    <rect x="34" y="60" width="250" height="22" rx="6" fill="#1F1F1F"/>
    <rect x="34" y="96" width="362" height="2" fill="#3A3A3A"/>
    <!-- table rows -->
    <g>
      <rect x="34" y="120" width="362" height="34" rx="6" fill="#ECE6D8"/>
      <rect x="44" y="131" width="120" height="12" rx="6" fill="#7A7468"/>
      <circle cx="300" cy="137" r="6" fill="#E11D48"/><rect x="318" y="131" width="60" height="12" rx="6" fill="#8A8478"/>
      <rect x="34" y="164" width="362" height="34" rx="6" fill="#F3EEE2"/>
      <rect x="44" y="175" width="150" height="12" rx="6" fill="#7A7468"/>
      <circle cx="300" cy="181" r="6" fill="#0284C7"/><rect x="318" y="175" width="60" height="12" rx="6" fill="#8A8478"/>
      <rect x="34" y="208" width="362" height="34" rx="6" fill="#ECE6D8"/>
      <rect x="44" y="219" width="100" height="12" rx="6" fill="#7A7468"/>
      <circle cx="300" cy="225" r="6" fill="#7C3AED"/><rect x="318" y="219" width="60" height="12" rx="6" fill="#8A8478"/>
      <rect x="34" y="252" width="362" height="34" rx="6" fill="#F3EEE2"/>
      <rect x="44" y="263" width="170" height="12" rx="6" fill="#7A7468"/>
      <circle cx="300" cy="269" r="6" fill="#D97706"/><rect x="318" y="263" width="60" height="12" rx="6" fill="#8A8478"/>
    </g>
    <!-- key bars -->
    <rect x="34" y="318" width="362" height="2" fill="#CFC8B8"/>
    <rect x="34" y="338" width="110" height="10" rx="5" fill="#9A9384"/>
    <rect x="34" y="360" width="160" height="10" rx="5" fill="#B7B0A0"/>
    <rect x="34" y="382" width="130" height="10" rx="5" fill="#B7B0A0"/>
  </g>

  <!-- gold approval seal -->
  <g transform="translate(1120,560)">
    <circle r="58" fill="#E8A249"/>
    <circle r="58" fill="none" stroke="#0E141C" stroke-width="2" opacity="0.25"/>
    <path d="M-24 2 l16 18 32 -38" fill="none" stroke="#0E141C" stroke-width="9" stroke-linecap="round" stroke-linejoin="round"/>
  </g>

  <rect width="1280" height="720" filter="url(#grain2)" opacity="0.9"/>
</svg>
