<svg width="1280" height="720" viewBox="0 0 1280 720" xmlns="http://www.w3.org/2000/svg" role="img" aria-label="Editorial illustration: a wall calendar over a calm desk, days sorted into working, present and absent">
  <defs>
    <linearGradient id="bg" x1="0" y1="0" x2="1" y2="1">
      <stop offset="0" stop-color="#0E141C"/>
      <stop offset="1" stop-color="#0A0F15"/>
    </linearGradient>
    <radialGradient id="glow" cx="0.72" cy="0.32" r="0.55">
      <stop offset="0" stop-color="#E8A249" stop-opacity="0.20"/>
      <stop offset="0.55" stop-color="#E8A249" stop-opacity="0.05"/>
      <stop offset="1" stop-color="#E8A249" stop-opacity="0"/>
    </radialGradient>
    <linearGradient id="cal" x1="0" y1="0" x2="0" y2="1">
      <stop offset="0" stop-color="#161F2A"/>
      <stop offset="1" stop-color="#121A23"/>
    </linearGradient>
    <filter id="grain"><feTurbulence type="fractalNoise" baseFrequency="0.9" numOctaves="2" stitchTiles="stitch"/><feColorMatrix type="matrix" values="0 0 0 0 1  0 0 0 0 1  0 0 0 0 1  0 0 0 0.018 0"/></filter>
    <filter id="soft" x="-20%" y="-20%" width="140%" height="140%"><feGaussianBlur stdDeviation="9"/></filter>
  </defs>

  <rect width="1280" height="720" fill="url(#bg)"/>
  <rect width="1280" height="720" fill="url(#glow)"/>

  <!-- soft desk shadow -->
  <ellipse cx="820" cy="612" rx="360" ry="34" fill="#000000" opacity="0.35" filter="url(#soft)"/>
  <!-- desk line -->
  <rect x="470" y="584" width="720" height="4" rx="2" fill="#23303D"/>

  <!-- wall calendar -->
  <g transform="translate(556,96)">
    <rect x="-10" y="14" width="520" height="430" rx="22" fill="#000" opacity="0.30" filter="url(#soft)"/>
    <rect width="500" height="430" rx="20" fill="url(#cal)" stroke="#2B3A49" stroke-width="2"/>
    <!-- hanger -->
    <circle cx="250" cy="0" r="6" fill="#3A4C5E"/>
    <!-- header bar -->
    <rect x="0" y="0" width="500" height="74" rx="20" fill="#E8A249"/>
    <rect x="0" y="40" width="500" height="34" fill="#E8A249"/>
    <rect x="34" y="28" width="150" height="18" rx="9" fill="#0E141C" opacity="0.82"/>
    <circle cx="430" cy="37" r="13" fill="#0E141C" opacity="0.18"/>
    <circle cx="396" cy="37" r="13" fill="#0E141C" opacity="0.18"/>
    <!-- weekday ticks -->
    <g fill="#7E8A96">
      <rect x="40" y="92" width="34" height="6" rx="3"/><rect x="105" y="92" width="34" height="6" rx="3"/>
      <rect x="170" y="92" width="34" height="6" rx="3"/><rect x="235" y="92" width="34" height="6" rx="3"/>
      <rect x="300" y="92" width="34" height="6" rx="3"/>
      <rect x="365" y="92" width="34" height="6" rx="3" opacity="0.4"/><rect x="430" y="92" width="30" height="6" rx="3" opacity="0.4"/>
    </g>
    <!-- day grid: 7 cols x 5 rows -->
    <g>
      <!-- generated cells -->
      <!-- row helper handled inline -->
      <!-- We color: most cells = present (gold-tint), weekends dimmed, one cyan (worked holiday), two rose (absent), violet (short time) -->
      <!-- r0 -->
      <rect x="36"  y="118" width="50" height="44" rx="8" fill="#1C2735"/>
      <rect x="101" y="118" width="50" height="44" rx="8" fill="#26384A" stroke="#E8A249" stroke-width="2"/>
      <rect x="166" y="118" width="50" height="44" rx="8" fill="#26384A" stroke="#E8A249" stroke-width="2"/>
      <rect x="231" y="118" width="50" height="44" rx="8" fill="#26384A" stroke="#E8A249" stroke-width="2"/>
      <rect x="296" y="118" width="50" height="44" rx="8" fill="#26384A" stroke="#E8A249" stroke-width="2"/>
      <rect x="361" y="118" width="50" height="44" rx="8" fill="#141C25"/>
      <rect x="426" y="118" width="40" height="44" rx="8" fill="#141C25"/>
      <!-- r1 -->
      <rect x="36"  y="172" width="50" height="44" rx="8" fill="#26384A" stroke="#E8A249" stroke-width="2"/>
      <rect x="101" y="172" width="50" height="44" rx="8" fill="#3A2230" stroke="#E11D48" stroke-width="2"/>
      <rect x="166" y="172" width="50" height="44" rx="8" fill="#26384A" stroke="#E8A249" stroke-width="2"/>
      <rect x="231" y="172" width="50" height="44" rx="8" fill="#26384A" stroke="#E8A249" stroke-width="2"/>
      <rect x="296" y="172" width="50" height="44" rx="8" fill="#1C2C3B" stroke="#00C8FF" stroke-width="2"/>
      <rect x="361" y="172" width="50" height="44" rx="8" fill="#141C25"/>
      <rect x="426" y="172" width="40" height="44" rx="8" fill="#141C25"/>
      <!-- r2 -->
      <rect x="36"  y="226" width="50" height="44" rx="8" fill="#26384A" stroke="#E8A249" stroke-width="2"/>
      <rect x="101" y="226" width="50" height="44" rx="8" fill="#26384A" stroke="#E8A249" stroke-width="2"/>
      <rect x="166" y="226" width="50" height="44" rx="8" fill="#2A2440" stroke="#7C3AED" stroke-width="2"/>
      <rect x="231" y="226" width="50" height="44" rx="8" fill="#2A2440" stroke="#7C3AED" stroke-width="2"/>
      <rect x="296" y="226" width="50" height="44" rx="8" fill="#26384A" stroke="#E8A249" stroke-width="2"/>
      <rect x="361" y="226" width="50" height="44" rx="8" fill="#141C25"/>
      <rect x="426" y="226" width="40" height="44" rx="8" fill="#141C25"/>
      <!-- r3 -->
      <rect x="36"  y="280" width="50" height="44" rx="8" fill="#26384A" stroke="#E8A249" stroke-width="2"/>
      <rect x="101" y="280" width="50" height="44" rx="8" fill="#26384A" stroke="#E8A249" stroke-width="2"/>
      <rect x="166" y="280" width="50" height="44" rx="8" fill="#26384A" stroke="#E8A249" stroke-width="2"/>
      <rect x="231" y="280" width="50" height="44" rx="8" fill="#3A2230" stroke="#E11D48" stroke-width="2"/>
      <rect x="296" y="280" width="50" height="44" rx="8" fill="#26384A" stroke="#E8A249" stroke-width="2"/>
      <rect x="361" y="280" width="50" height="44" rx="8" fill="#141C25"/>
      <rect x="426" y="280" width="40" height="44" rx="8" fill="#141C25"/>
      <!-- r4 -->
      <rect x="36"  y="334" width="50" height="44" rx="8" fill="#26384A" stroke="#E8A249" stroke-width="2"/>
      <rect x="101" y="334" width="50" height="44" rx="8" fill="#26384A" stroke="#E8A249" stroke-width="2"/>
      <rect x="166" y="334" width="50" height="44" rx="8" fill="#26384A" stroke="#E8A249" stroke-width="2"/>
      <rect x="231" y="334" width="50" height="44" rx="8" fill="#26384A" stroke="#E8A249" stroke-width="2"/>
      <rect x="296" y="334" width="50" height="44" rx="8" fill="#26384A" stroke="#E8A249" stroke-width="2"/>
      <rect x="361" y="334" width="50" height="44" rx="8" fill="#141C25"/>
      <rect x="426" y="334" width="40" height="44" rx="8" fill="#141C25"/>
      <!-- small check + star marks -->
      <path d="M309 191 l7 8 13 -16" fill="none" stroke="#00C8FF" stroke-width="3" stroke-linecap="round" stroke-linejoin="round"/>
    </g>
  </g>

  <!-- coffee mug -->
  <g transform="translate(508,520)">
    <rect x="0" y="0" width="72" height="58" rx="12" fill="#1B2530" stroke="#33455A" stroke-width="2"/>
    <path d="M72 14 q26 4 24 26 q-2 18 -24 18" fill="none" stroke="#33455A" stroke-width="6"/>
    <path d="M16 -16 q6 -10 0 -20 M36 -16 q6 -10 0 -20 M56 -16 q6 -10 0 -20" fill="none" stroke="#E8A249" stroke-width="3" stroke-linecap="round" opacity="0.65"/>
  </g>

  <!-- potted plant -->
  <g transform="translate(1052,470)">
    <path d="M40 60 q-44 -30 -30 -86 q26 18 30 60 z" fill="#1E3A33"/>
    <path d="M40 64 q44 -26 34 -80 q-28 16 -34 56 z" fill="#244A40"/>
    <path d="M40 70 V36" stroke="#2C5A4C" stroke-width="3"/>
    <path d="M16 70 h48 l-7 46 h-34 z" fill="#C8772F"/>
    <rect x="12" y="64" width="56" height="12" rx="4" fill="#E8A249"/>
  </g>

  <rect width="1280" height="720" filter="url(#grain)" opacity="0.9"/>
</svg>
