<svg xmlns="http://www.w3.org/2000/svg" viewBox="0 0 1280 350" font-family="'Helvetica Neue','Inter',system-ui,sans-serif">
  <defs>
    <marker id="arrow" viewBox="0 0 10 10" refX="8" refY="5" markerWidth="7" markerHeight="7" orient="auto-start-reverse">
      <path d="M0,0 L10,5 L0,10 z" fill="#00C8FF"/>
    </marker>
  </defs>

  <!-- Arrows behind tiles -->
  <g stroke="#00C8FF" stroke-width="2.5">
    <line x1="246" y1="124" x2="296" y2="124" marker-end="url(#arrow)"/>
    <line x1="492" y1="124" x2="542" y2="124" marker-end="url(#arrow)"/>
    <line x1="738" y1="124" x2="788" y2="124" marker-end="url(#arrow)"/>
    <line x1="984" y1="124" x2="1034" y2="124" marker-end="url(#arrow)"/>
  </g>

  <!-- Tile 1 -->
  <g>
    <rect x="50" y="40" width="196" height="168" rx="12" fill="#16202B" stroke="#2A3A49" stroke-width="1.5"/>
    <text x="74" y="86" font-size="34" font-weight="700" fill="#E8A249">1</text>
    <text x="148" y="114" text-anchor="middle" font-size="21" font-weight="700" fill="#F5F0E6">PO raised</text>
    <text x="148" y="142" text-anchor="middle" font-size="14" fill="#9DB0C0">Purchasing → Supplier</text>
    <line x1="74" y1="160" x2="222" y2="160" stroke="#2A3A49" stroke-width="1"/>
    <text x="148" y="188" text-anchor="middle" font-size="15" font-weight="600" fill="#E8A249">ETA set</text>
  </g>

  <!-- Tile 2 -->
  <g>
    <rect x="296" y="40" width="196" height="168" rx="12" fill="#16202B" stroke="#2A3A49" stroke-width="1.5"/>
    <text x="320" y="86" font-size="34" font-weight="700" fill="#E8A249">2</text>
    <text x="394" y="114" text-anchor="middle" font-size="21" font-weight="700" fill="#F5F0E6">Invoice in</text>
    <text x="394" y="142" text-anchor="middle" font-size="14" fill="#9DB0C0">Supplier → Purchasing</text>
    <line x1="320" y1="160" x2="468" y2="160" stroke="#2A3A49" stroke-width="1"/>
    <text x="394" y="188" text-anchor="middle" font-size="15" font-weight="600" fill="#7FE4F5">watched: arrived?</text>
  </g>

  <!-- Tile 3 (the most common stall) -->
  <g>
    <rect x="542" y="40" width="196" height="168" rx="12" fill="#16202B" stroke="#3A4250" stroke-width="1.8"/>
    <text x="566" y="86" font-size="34" font-weight="700" fill="#E8A249">3</text>
    <text x="640" y="114" text-anchor="middle" font-size="21" font-weight="700" fill="#F5F0E6">Processed</text>
    <text x="640" y="142" text-anchor="middle" font-size="14" fill="#9DB0C0">Purchasing → Accounts</text>
    <line x1="566" y1="160" x2="714" y2="160" stroke="#2A3A49" stroke-width="1"/>
    <text x="640" y="188" text-anchor="middle" font-size="15" font-weight="700" fill="#E8A249">watched: actioned?</text>
  </g>

  <!-- Tile 4 -->
  <g>
    <rect x="788" y="40" width="196" height="168" rx="12" fill="#16202B" stroke="#2A3A49" stroke-width="1.5"/>
    <text x="812" y="86" font-size="34" font-weight="700" fill="#E8A249">4</text>
    <text x="886" y="114" text-anchor="middle" font-size="21" font-weight="700" fill="#F5F0E6">Paid + signed off</text>
    <text x="886" y="142" text-anchor="middle" font-size="14" fill="#9DB0C0">Accounts authorises</text>
    <line x1="812" y1="160" x2="960" y2="160" stroke="#2A3A49" stroke-width="1"/>
    <text x="886" y="188" text-anchor="middle" font-size="15" font-weight="600" fill="#7FE4F5">watched: paid?</text>
  </g>

  <!-- Tile 5 -->
  <g>
    <rect x="1034" y="40" width="196" height="168" rx="12" fill="#16202B" stroke="#1F6E5A" stroke-width="1.8"/>
    <text x="1058" y="86" font-size="34" font-weight="700" fill="#E8A249">5</text>
    <text x="1132" y="114" text-anchor="middle" font-size="21" font-weight="700" fill="#F5F0E6">Proof sent</text>
    <text x="1132" y="142" text-anchor="middle" font-size="14" fill="#9DB0C0">Accounts → Supplier</text>
    <line x1="1058" y1="160" x2="1206" y2="160" stroke="#2A3A49" stroke-width="1"/>
    <text x="1132" y="188" text-anchor="middle" font-size="15" font-weight="700" fill="#5BD6A8">loop closed ✓</text>
  </g>

  <!-- Escalation strip -->
  <rect x="50" y="250" width="1180" height="78" rx="10" fill="#111A22" stroke="#2A3A49" stroke-width="1.5"/>
  <rect x="50" y="250" width="5" height="78" rx="2" fill="#7FE4F5"/>
  <text x="84" y="282" font-size="18" fill="#BFB8AA">If a checkpoint goes quiet, Unity nudges — </text>
  <text x="448" y="282" font-size="18" font-weight="700" fill="#E8A249">the buyer first, then accounts, then the daily brief</text>
  <text x="966" y="282" font-size="18" fill="#BFB8AA"> — until it closes.</text>
  <text x="84" y="310" font-size="15" fill="#9DB0C0">Nothing depends on anyone remembering. The system remembers, and keeps asking until the loop is closed.</text>
</svg>
